<svg width="218" height="128" viewBox="0 0 218 128" fill="none" xmlns="http://www.w3.org/2000/svg">
<g clip-path="url(#clip0_2018_5066)">
<path d="M62.962 51.6C59.0438 25.9606 81.7441 1.3117 107.398 0.702676C135.17 -1.49919 160.986 25.4921 155.793 52.9987C151.349 49.3914 147.107 45.5498 142.879 41.7083C139.621 41.7618 136.445 42.5515 133.201 42.7055C128.21 39.0179 127.475 32.178 122.68 28.3766C117.103 24.1736 114.722 16.2831 108.14 13.3182C99.9664 20.9411 93.9238 30.5584 84.6508 36.9699C81.4271 40.2627 79.06 44.3719 75.4587 47.2899C70.5558 46.6207 66.0643 47.6446 62.962 51.6Z" fill="#E1BD59" stroke="#F88F23" stroke-width="0.333333"/>
<path d="M84.6508 36.9699C93.9238 30.5584 99.9664 20.9411 108.14 13.3182C114.722 16.2831 117.103 24.1736 122.68 28.3766C127.475 32.178 128.21 39.0179 133.201 42.7055C136.445 42.5515 139.621 41.7618 142.879 41.7083C147.107 45.5498 151.349 49.3914 155.793 52.9987C160.487 56.8001 164.979 60.8424 169.679 64.6438C179.836 67.3142 185.878 76.6102 193.614 83.0017C194.612 81.3486 192.433 81.3084 195.138 79.8227C190.835 79.7424 194.989 77.574 196.541 76.5165C192.164 77.0051 196.581 71.4569 197.768 70.3727C198.962 71.5573 202.893 75.8339 199.184 76.5835C199.751 78.3704 204.323 78.3771 201.032 79.5282C197.1 80.6927 205.422 80.7463 202.482 82.2588C201.12 82.0848 201.808 83.7379 200.573 83.778C196.844 85.3039 206.05 82.7942 204.404 85.5582C202.59 85.9665 198.328 86.9838 202.253 87.9743C206.872 90.1159 197.343 88.0278 198.442 91.0261C197.728 92.7595 202.523 94.0311 200.472 91.6887C199.319 89.962 200.499 90.1561 201.646 91.2068C205.969 95.3562 211.559 97.7522 216.186 101.513C207.048 100.583 214.19 103.802 217.528 105.616C200.425 106.74 182.985 102.979 166.139 107.222C166.139 107.497 166.139 108.052 166.139 108.326C174.852 110.502 183.963 111.01 192.622 113.54C176.882 115.334 160.804 113.219 145.239 116.619C147.053 120.159 156.63 118.941 159.132 120.996C147.417 125.192 134.61 126.376 122.249 127.922C105.287 130.024 87.4765 128.076 72.3295 119.798C58.0254 111.238 40.5787 116.237 24.8854 113.547C33.9696 110.957 43.5258 110.535 52.6909 108.286C52.6977 108.012 52.7112 107.47 52.7179 107.195C35.5746 103.294 18.0132 106.379 0.681152 105.623C2.96063 104.211 5.47614 103.247 7.78934 101.895C5.88078 101.841 3.97222 101.754 2.06367 101.627C5.72567 98.2541 10.4734 96.1861 14.358 93.0607C16.914 92.9134 19.2609 91.3741 20.5085 89.1187C18.6674 88.9782 15.9631 90.7584 15.0257 88.5565C15.9024 87.914 17.9728 88.0546 17.6086 86.5488C15.1605 86.5755 11.2085 82.8745 17.7165 84.3402C20.6771 84.5209 16.9072 83.4166 16.8937 82.3458C12.9485 82.0915 22.1069 79.642 17.7233 79.6821C13.4071 79.2873 21.7899 76.7173 19.8544 75.8272C15.5449 76.5165 20.6367 72.414 20.6636 70.3794C22.5992 70.9684 25.9779 75.8473 22.5048 76.5835C23.0645 78.3838 27.6302 78.3704 24.3459 79.5416C21.7832 79.6085 24.4808 81.0541 25.5261 80.7998C30.0715 72.0593 41.2194 70.1786 47.2148 62.7498C51.0656 57.1347 57.9917 55.8163 62.962 51.6C66.0643 47.6446 70.5558 46.6207 75.4587 47.2899C79.06 44.3719 81.4271 40.2627 84.6508 36.9699Z" fill="#2A5184" stroke="#2A2B5B" stroke-width="0.333333"/>
<path d="M107.567 15.5269C111.606 16.5575 108.282 24.7292 109.462 28.109C113.211 40.7178 121.23 52.0283 123.22 65.1927C123.604 70.2724 122.424 75.3521 123.469 80.4117C116.192 74.6426 117.696 63.9144 111.471 57.5029C110.244 56.3652 108.949 57.2753 108.18 58.4131C107.088 63.7538 110.48 68.3851 111.681 73.3978C112.524 77.3398 116.118 79.6554 118.62 82.5399C120.738 86.3614 122.963 90.1963 124.332 94.3725C118.654 91.2136 113.023 87.8003 107.89 83.8517C103.716 78.6315 110.918 72.2735 107.149 67.1536C106.312 65.6277 104.7 63.4191 102.886 65.099C98.7927 70.9885 94.571 77.2595 87.7798 80.3314C88.5283 78.1897 90.4234 75.2651 87.6853 73.7191C81.7911 75.4591 75.7147 77.2929 70.36 80.3916C63.9532 85.6453 56.7708 90.397 48.6173 92.3714C53.763 88.7841 59.428 85.739 63.3934 80.7463C65.5448 74.6962 58.6119 77.8417 56.1504 78.3102C52.3805 80.1708 48.8264 77.9956 45.3397 76.9583C38.245 78.4775 31.6899 82.0848 26.3823 86.9972C31.4538 90.1561 23.4824 89.6542 21.6817 91.6686C20.5353 87.0708 25.1212 90.8856 27.1983 88.6436C26.2407 88.1483 23.8263 88.1885 24.6087 86.5756C26.6925 86.1606 29.842 82.6202 23.8129 84.3001C23.7252 82.8545 28.3111 84.28 25.2291 82.7407C29.0934 80.1105 32.7554 77.1189 37.2402 75.5662C43.6133 73.7592 45.5016 65.6679 51.5037 63.5329C50.944 65.4269 49.2378 66.8792 49.3322 68.974C51.9826 67.5753 57.978 62.0873 54.8757 67.7225C61.9704 64.751 58.9019 53.8153 66.8598 51.3992C65.538 55.7829 63.2113 59.852 62.1593 64.3093C76.3419 59.1158 81.1234 42.7658 91.9273 33.5166C99.629 29.9829 102.414 21.5837 107.567 15.5269Z" fill="#FEFEFF" stroke="#FEFEFF" stroke-width="0.333333"/>
<path d="M104.836 31.5289C110.096 31.5021 108.74 39.3191 107.945 42.7658C107.803 51.0847 100.459 56.0907 95.4412 61.7594C94.3756 62.6696 89.5267 67.1804 89.8841 63.5865C91.3004 57.349 96.1628 52.6039 98.7457 46.8616C89.4997 49.4517 90.9564 60.9496 84.6103 66.4041C80.5639 69.5362 76.6524 73.2506 71.7832 75.071C72.3025 72.1999 71.8439 69.302 71.8439 66.4308C74.4538 61.0968 80.6111 60.0193 85.6219 58.0182C87.8744 55.9167 89.2434 52.5236 89.1625 49.4048C87.7125 50.6831 86.4919 52.1689 85.1835 53.581C82.9176 50.5961 87.4765 47.9458 88.6972 45.6904C92.1231 42.1701 92.575 34.8752 98.5771 34.8016C101.848 35.9125 98.0511 39.3994 97.9162 41.5611C101.956 39.5132 102.03 34.5406 104.836 31.5289Z" fill="#2A5184" stroke="#2A2B5B" stroke-width="0.333333"/>
<path d="M135.251 57.1348C136.573 56.6864 134.165 65.6143 138.219 64.0415C140.141 63.0444 142.487 60.4275 144.315 63.0912C147.309 69.9578 156.333 70.5267 158.653 77.6342C160.258 82.7005 165.431 84.7686 168.877 88.329C160.824 86.937 154.66 80.9672 150.418 74.395C145.199 73.1234 149.353 80.2711 149.211 83.0887C146.797 81.1679 145.091 78.5913 143.041 76.3426C140.336 77.6878 139.871 81.5026 139.864 84.1662C141.692 86.2142 143.951 87.8137 145.967 89.6675C142.643 90.136 140.019 87.1511 136.654 87.9007C134.482 89.092 132.857 91.3675 130.288 91.7489C130.497 84.2131 141.489 79.7558 137.578 71.805C137.011 67.843 128.878 73.264 131.913 67.0599C133.181 63.8006 133.956 60.374 135.251 57.1348Z" fill="#FEFEFF" stroke="#FEFEFF" stroke-width="0.333333"/>
<path d="M157.236 56.8337C163.906 60.8091 168.27 67.4214 173.334 73.0968C176.005 76.7309 181.353 76.9651 183.99 80.6193C186.593 83.8116 190.228 85.8863 194.106 87.2182C194.47 88.1418 191.752 88.1016 190.95 88.6035C192.717 90.2633 194.989 89.0386 197.066 88.9783C199.198 94.6269 196.628 91.6955 195.003 91.1601C189.648 90.009 185.285 86.6761 180.847 83.7313C168.06 80.4586 162.166 67.5888 157.236 56.8337Z" fill="#FEFEFF" stroke="#FEFEFF" stroke-width="0.333333"/>
<path d="M61.8022 67.9099C66.4758 65.166 65.1 70.6807 63.414 72.1397C59.226 75.7738 50.6544 76.7576 46.7563 75.0041C50.9848 72.1464 56.7712 70.0248 61.8022 67.9099Z" fill="#2A5184" stroke="#2A2B5B" stroke-width="0.333333"/>
<path d="M190.363 83.6442C191.705 83.5572 193.263 83.4568 193.83 84.956C192.562 84.7552 189.648 85.8929 190.363 83.6442Z" fill="#FEFEFF" stroke="#FEFEFF" stroke-width="0.333333"/>
<path d="M144.214 43.7162C144.483 43.6627 145.03 43.5489 145.299 43.4954C146.48 48.7758 148.584 53.8221 150.263 58.962C144.895 55.9168 140.161 51.5131 135.352 47.5377C138.461 46.6342 141.462 45.4764 144.214 43.7162Z" fill="#FEFEFF" stroke="#FEFEFF" stroke-width="0.333333"/>
<g filter="url(#filter0_b_2018_5066)">
<rect x="45.5" y="83" width="127" height="35" fill="white" fill-opacity="0.28"/>
<rect x="46" y="83.5" width="126" height="34" stroke="white" stroke-opacity="0.38"/>
<path d="M74.068 108.712C73.204 108.824 72.356 108.912 71.524 108.976C70.708 109.04 69.956 109.048 69.268 109C68.596 108.968 68.036 108.872 67.588 108.712C67.14 108.536 66.868 108.272 66.772 107.92C66.708 107.232 66.652 106.448 66.604 105.568C66.572 104.672 66.548 103.736 66.532 102.76C66.532 101.784 66.54 100.8 66.556 99.808C66.572 98.8 66.604 97.832 66.652 96.904C66.7 95.976 66.756 95.128 66.82 94.36C66.836 94.216 66.884 94.072 66.964 93.928C67.044 93.784 67.172 93.664 67.348 93.568C67.524 93.472 67.764 93.424 68.068 93.424L73.324 93.448C74.028 93.544 74.676 93.736 75.268 94.024C75.86 94.296 76.372 94.648 76.804 95.08C77.236 95.512 77.556 96 77.764 96.544C77.924 97.008 77.988 97.464 77.956 97.912C77.924 98.344 77.804 98.752 77.596 99.136C77.388 99.504 77.1 99.84 76.732 100.144C76.38 100.448 75.964 100.704 75.484 100.912C75.98 101.136 76.412 101.448 76.78 101.848C77.148 102.232 77.444 102.664 77.668 103.144C77.892 103.608 78.02 104.096 78.052 104.608C78.036 105.264 77.884 105.864 77.596 106.408C77.308 106.936 76.876 107.392 76.3 107.776C75.724 108.16 74.98 108.472 74.068 108.712ZM69.076 106.912C69.844 106.912 70.572 106.904 71.26 106.888C71.964 106.856 72.596 106.784 73.156 106.672C73.716 106.544 74.18 106.36 74.548 106.12C75.444 105.448 75.748 104.688 75.46 103.84C75.316 103.392 75.084 103.04 74.764 102.784C74.444 102.528 74.076 102.336 73.66 102.208C73.26 102.08 72.836 102 72.388 101.968L68.956 102.016C68.94 102.832 68.94 103.648 68.956 104.464C68.988 105.28 69.028 106.096 69.076 106.912ZM69.004 99.592C69.788 99.64 70.556 99.648 71.308 99.616C72.076 99.568 72.844 99.472 73.612 99.328C74.156 99.136 74.588 98.888 74.908 98.584C75.244 98.28 75.42 97.888 75.436 97.408C75.388 96.88 75.164 96.44 74.764 96.088C74.364 95.736 73.756 95.488 72.94 95.344C72.716 95.312 72.404 95.288 72.004 95.272C71.604 95.256 71.156 95.248 70.66 95.248C70.18 95.232 69.684 95.224 69.172 95.224L69.004 99.592ZM85.3936 108.784C84.4016 108.608 83.5456 108.296 82.8256 107.848C82.1216 107.4 81.5376 106.864 81.0736 106.24C80.6256 105.6 80.2816 104.928 80.0416 104.224C79.8176 103.52 79.6816 102.824 79.6336 102.136C79.6016 101.432 79.6416 100.792 79.7536 100.216C79.8816 99.512 80.1216 98.768 80.4736 97.984C80.8416 97.184 81.3216 96.44 81.9136 95.752C82.5216 95.048 83.2416 94.48 84.0736 94.048C84.9216 93.6 85.8976 93.376 87.0016 93.376C88.0576 93.392 88.9776 93.6 89.7616 94C90.5456 94.384 91.1696 94.888 91.6336 95.512C92.1136 96.12 92.4256 96.776 92.5696 97.48C92.7296 98.168 92.7056 98.824 92.4976 99.448C92.4976 99.448 92.4656 99.496 92.4016 99.592C92.3376 99.688 92.2336 99.784 92.0896 99.88C91.9456 99.96 91.7456 99.984 91.4896 99.952C91.2336 99.904 91.0336 99.816 90.8896 99.688C90.7616 99.56 90.6736 99.432 90.6256 99.304C90.5776 99.176 90.5536 99.112 90.5536 99.112C90.5536 99.112 90.5456 99.016 90.5296 98.824C90.5296 98.616 90.4976 98.352 90.4336 98.032C90.3696 97.712 90.2416 97.384 90.0496 97.048C89.8736 96.712 89.6096 96.408 89.2576 96.136C88.9216 95.864 88.4656 95.672 87.8896 95.56C87.2656 95.448 86.6576 95.512 86.0656 95.752C85.4896 95.992 84.9456 96.36 84.4336 96.856C83.9376 97.336 83.5056 97.888 83.1376 98.512C82.7696 99.12 82.4896 99.752 82.2976 100.408C82.1216 101.064 82.0576 101.672 82.1056 102.232C82.1536 102.84 82.2816 103.384 82.4896 103.864C82.6976 104.344 82.9536 104.768 83.2576 105.136C83.5616 105.488 83.8896 105.792 84.2416 106.048C84.6096 106.288 84.9776 106.472 85.3456 106.6C85.7136 106.712 86.0656 106.784 86.4016 106.816C86.8816 106.816 87.3536 106.72 87.8176 106.528C88.2976 106.32 88.7216 106.056 89.0896 105.736C89.4736 105.416 89.7456 105.088 89.9056 104.752C89.9056 104.752 89.9376 104.712 90.0016 104.632C90.0656 104.552 90.1616 104.464 90.2896 104.368C90.4336 104.272 90.6016 104.224 90.7936 104.224C91.0016 104.208 91.2416 104.256 91.5136 104.368C91.7376 104.48 91.9056 104.6 92.0176 104.728C92.1296 104.856 92.2016 104.984 92.2336 105.112C92.2656 105.24 92.2656 105.36 92.2336 105.472C92.2176 105.584 92.1936 105.672 92.1616 105.736C92.1456 105.8 92.1376 105.832 92.1376 105.832C92.1376 105.832 92.0656 105.96 91.9216 106.216C91.7776 106.456 91.5456 106.76 91.2256 107.128C90.9056 107.48 90.4816 107.816 89.9536 108.136C89.4256 108.456 88.7856 108.696 88.0336 108.856C87.2976 109 86.4176 108.976 85.3936 108.784ZM99.6408 108.952C98.8088 108.952 98.0408 108.8 97.3368 108.496C96.6488 108.192 96.0568 107.784 95.5608 107.272C95.0648 106.744 94.6808 106.128 94.4088 105.424C94.1368 104.72 94.0008 103.968 94.0008 103.168C94.0008 102.368 94.1448 101.6 94.4328 100.864C94.7368 100.112 95.1608 99.448 95.7048 98.872C96.2488 98.296 96.8808 97.84 97.6008 97.504C98.3208 97.168 99.0968 97 99.9288 97C100.761 97 101.537 97.12 102.257 97.36C102.977 97.6 103.601 97.968 104.129 98.464C104.673 98.944 105.089 99.568 105.377 100.336C105.681 101.088 105.833 101.976 105.833 103C105.833 103.8 105.673 104.56 105.353 105.28C105.033 106 104.577 106.632 103.985 107.176C103.409 107.72 102.745 108.152 101.993 108.472C101.257 108.792 100.473 108.952 99.6408 108.952ZM99.6168 106.816C100.129 106.816 100.609 106.712 101.057 106.504C101.521 106.28 101.929 105.984 102.281 105.616C102.633 105.248 102.913 104.832 103.121 104.368C103.329 103.888 103.433 103.384 103.433 102.856C103.433 101.96 103.281 101.224 102.977 100.648C102.689 100.072 102.289 99.648 101.777 99.376C101.265 99.088 100.673 98.944 100.001 98.944C99.5048 98.944 99.0408 99.072 98.6088 99.328C98.1768 99.568 97.7928 99.896 97.4568 100.312C97.1368 100.712 96.8808 101.168 96.6888 101.68C96.4968 102.192 96.4008 102.712 96.4008 103.24C96.4008 103.928 96.5288 104.544 96.7848 105.088C97.0568 105.632 97.4328 106.056 97.9128 106.36C98.4088 106.664 98.9768 106.816 99.6168 106.816ZM111.522 109C111.266 109 111.05 108.952 110.874 108.856C110.698 108.744 110.562 108.624 110.466 108.496C110.386 108.352 110.322 108.232 110.274 108.136C110.242 108.04 110.226 107.992 110.226 107.992C110.162 107.304 110.106 106.512 110.058 105.616C110.01 104.704 109.978 103.752 109.962 102.76C109.962 101.752 109.97 100.744 109.986 99.736C110.002 98.728 110.034 97.752 110.082 96.808C110.13 95.864 110.186 95 110.25 94.216C110.25 94.216 110.258 94.176 110.274 94.096C110.306 94 110.362 93.896 110.442 93.784C110.522 93.672 110.634 93.576 110.778 93.496C110.938 93.416 111.146 93.392 111.402 93.424C111.69 93.44 111.906 93.504 112.05 93.616C112.21 93.728 112.322 93.856 112.386 94C112.466 94.144 112.514 94.272 112.53 94.384C112.562 94.496 112.578 94.552 112.578 94.552C112.53 95.176 112.49 95.92 112.458 96.784C112.442 97.648 112.426 98.576 112.41 99.568C112.394 100.544 112.386 101.536 112.386 102.544C112.386 103.552 112.402 104.536 112.434 105.496C112.466 106.44 112.506 107.304 112.554 108.088C112.554 108.088 112.538 108.136 112.506 108.232C112.49 108.312 112.45 108.416 112.386 108.544C112.338 108.656 112.242 108.76 112.098 108.856C111.954 108.952 111.762 109 111.522 109ZM114.81 99.424C113.546 99.408 112.346 99.392 111.21 99.376C110.074 99.344 109.066 99.32 108.186 99.304C108.186 99.304 108.122 99.296 107.994 99.28C107.882 99.264 107.746 99.224 107.586 99.16C107.426 99.096 107.282 99.008 107.154 98.896C107.026 98.768 106.954 98.592 106.938 98.368C106.922 98.176 106.946 98.024 107.01 97.912C107.074 97.8 107.162 97.72 107.274 97.672C107.386 97.608 107.474 97.568 107.538 97.552C107.618 97.52 107.658 97.504 107.658 97.504C107.786 97.488 108.026 97.472 108.378 97.456C108.73 97.44 109.154 97.432 109.65 97.432C110.146 97.416 110.674 97.408 111.234 97.408C111.81 97.392 112.386 97.384 112.962 97.384C113.538 97.384 114.082 97.384 114.594 97.384C114.594 97.384 114.634 97.392 114.714 97.408C114.81 97.424 114.922 97.456 115.05 97.504C115.178 97.536 115.306 97.592 115.434 97.672C115.562 97.752 115.666 97.856 115.746 97.984C115.826 98.112 115.866 98.28 115.866 98.488C115.85 98.728 115.786 98.92 115.674 99.064C115.562 99.192 115.442 99.28 115.314 99.328C115.186 99.376 115.066 99.408 114.954 99.424C114.858 99.424 114.81 99.424 114.81 99.424ZM121.905 109C121.649 109 121.433 108.952 121.257 108.856C121.081 108.744 120.945 108.624 120.849 108.496C120.769 108.352 120.705 108.232 120.657 108.136C120.625 108.04 120.609 107.992 120.609 107.992C120.545 107.304 120.489 106.512 120.441 105.616C120.393 104.704 120.361 103.752 120.345 102.76C120.345 101.752 120.353 100.744 120.369 99.736C120.385 98.728 120.417 97.752 120.465 96.808C120.513 95.864 120.569 95 120.633 94.216C120.633 94.216 120.641 94.176 120.657 94.096C120.689 94 120.745 93.896 120.825 93.784C120.905 93.672 121.017 93.576 121.161 93.496C121.321 93.416 121.529 93.392 121.785 93.424C122.073 93.44 122.289 93.504 122.433 93.616C122.593 93.728 122.705 93.856 122.769 94C122.849 94.144 122.897 94.272 122.913 94.384C122.945 94.496 122.961 94.552 122.961 94.552C122.913 95.176 122.873 95.92 122.841 96.784C122.825 97.648 122.809 98.576 122.793 99.568C122.777 100.544 122.769 101.536 122.769 102.544C122.769 103.552 122.785 104.536 122.817 105.496C122.849 106.44 122.889 107.304 122.937 108.088C122.937 108.088 122.921 108.136 122.889 108.232C122.873 108.312 122.833 108.416 122.769 108.544C122.721 108.656 122.625 108.76 122.481 108.856C122.337 108.952 122.145 109 121.905 109ZM125.193 99.424C123.929 99.408 122.729 99.392 121.593 99.376C120.457 99.344 119.449 99.32 118.569 99.304C118.569 99.304 118.505 99.296 118.377 99.28C118.265 99.264 118.129 99.224 117.969 99.16C117.809 99.096 117.665 99.008 117.537 98.896C117.409 98.768 117.337 98.592 117.321 98.368C117.305 98.176 117.329 98.024 117.393 97.912C117.457 97.8 117.545 97.72 117.657 97.672C117.769 97.608 117.857 97.568 117.921 97.552C118.001 97.52 118.041 97.504 118.041 97.504C118.169 97.488 118.409 97.472 118.761 97.456C119.113 97.44 119.537 97.432 120.033 97.432C120.529 97.416 121.057 97.408 121.617 97.408C122.193 97.392 122.769 97.384 123.345 97.384C123.921 97.384 124.465 97.384 124.977 97.384C124.977 97.384 125.017 97.392 125.097 97.408C125.193 97.424 125.305 97.456 125.433 97.504C125.561 97.536 125.689 97.592 125.817 97.672C125.945 97.752 126.049 97.856 126.129 97.984C126.209 98.112 126.249 98.28 126.249 98.488C126.233 98.728 126.169 98.92 126.057 99.064C125.945 99.192 125.825 99.28 125.697 99.328C125.569 99.376 125.449 99.408 125.337 99.424C125.241 99.424 125.193 99.424 125.193 99.424ZM132.062 109.24C131.006 109.064 130.15 108.768 129.494 108.352C128.854 107.92 128.358 107.424 128.006 106.864C127.67 106.288 127.438 105.672 127.31 105.016C127.198 104.36 127.142 103.712 127.142 103.072C127.126 102.352 127.254 101.632 127.526 100.912C127.814 100.176 128.222 99.504 128.75 98.896C129.294 98.288 129.942 97.816 130.694 97.48C131.462 97.144 132.31 97.008 133.238 97.072C134.182 97.136 134.95 97.32 135.542 97.624C136.134 97.912 136.59 98.272 136.91 98.704C137.246 99.136 137.47 99.592 137.582 100.072C137.71 100.552 137.782 101.008 137.798 101.44C137.782 102.24 137.566 102.912 137.15 103.456C136.75 103.984 136.118 104.344 135.254 104.536C134.998 104.584 134.67 104.624 134.27 104.656C133.886 104.672 133.47 104.68 133.022 104.68C132.59 104.68 132.158 104.672 131.726 104.656C131.31 104.64 130.918 104.624 130.55 104.608C130.198 104.592 129.91 104.584 129.686 104.584C129.478 104.568 129.374 104.56 129.374 104.56C129.422 105.008 129.566 105.448 129.806 105.88C130.046 106.296 130.39 106.64 130.838 106.912C131.302 107.184 131.878 107.344 132.566 107.392C133.158 107.408 133.71 107.4 134.222 107.368C134.734 107.336 135.182 107.288 135.566 107.224C135.966 107.16 136.27 107.104 136.478 107.056C136.686 107.008 136.79 106.984 136.79 106.984C136.79 106.984 136.83 106.984 136.91 106.984C137.006 106.968 137.11 106.968 137.222 106.984C137.35 107 137.478 107.048 137.606 107.128C137.734 107.192 137.838 107.312 137.918 107.488C138.014 107.648 138.046 107.792 138.014 107.92C137.998 108.032 137.958 108.136 137.894 108.232C137.83 108.312 137.766 108.376 137.702 108.424C137.654 108.456 137.63 108.472 137.63 108.472C137.63 108.472 137.462 108.528 137.126 108.64C136.79 108.752 136.342 108.872 135.782 109C135.238 109.144 134.638 109.248 133.982 109.312C133.326 109.376 132.686 109.352 132.062 109.24ZM129.374 103.072L134.078 103.024C134.078 103.024 134.134 103.016 134.246 103C134.358 102.968 134.494 102.928 134.654 102.88C134.83 102.832 134.998 102.744 135.158 102.616C135.334 102.488 135.478 102.32 135.59 102.112C135.702 101.888 135.758 101.608 135.758 101.272C135.758 100.712 135.662 100.248 135.47 99.88C135.278 99.512 134.958 99.248 134.51 99.088C134.062 98.912 133.438 98.848 132.638 98.896C132.078 98.928 131.582 99.104 131.15 99.424C130.734 99.728 130.382 100.104 130.094 100.552C129.822 101 129.622 101.456 129.494 101.92C129.366 102.368 129.326 102.752 129.374 103.072ZM149.234 108.544C148.962 108.464 148.754 108.352 148.61 108.208C148.466 108.064 148.37 107.92 148.322 107.776C148.274 107.616 148.242 107.48 148.226 107.368C148.226 107.24 148.226 107.176 148.226 107.176C148.402 105.832 148.466 104.608 148.418 103.504C148.386 102.384 148.194 101.512 147.842 100.888C147.522 100.296 147.146 99.872 146.714 99.616C146.282 99.344 145.834 99.224 145.37 99.256C144.906 99.272 144.442 99.424 143.978 99.712C143.434 100.064 143.01 100.496 142.706 101.008C142.402 101.52 142.186 102.064 142.058 102.64C141.946 103.216 141.882 103.776 141.866 104.32C141.882 104.832 141.89 105.296 141.89 105.712C141.89 106.128 141.898 106.496 141.914 106.816C141.93 107.136 141.946 107.4 141.962 107.608C141.962 107.608 141.954 107.64 141.938 107.704C141.938 107.768 141.922 107.848 141.89 107.944C141.858 108.04 141.786 108.128 141.674 108.208C141.578 108.288 141.418 108.336 141.194 108.352C141.002 108.368 140.834 108.328 140.69 108.232C140.546 108.136 140.426 108.04 140.33 107.944C140.25 107.848 140.21 107.8 140.21 107.8C140.034 107.512 139.938 107.232 139.922 106.96C139.922 106.688 139.93 106.384 139.946 106.048C139.978 105.712 139.954 105.304 139.874 104.824C139.842 104.232 139.826 103.696 139.826 103.216C139.842 102.72 139.882 102.256 139.946 101.824C140.01 101.376 140.114 100.96 140.258 100.576C140.402 100.192 140.602 99.816 140.858 99.448C141.178 99.032 141.57 98.656 142.034 98.32C142.498 97.984 143.002 97.712 143.546 97.504C144.106 97.296 144.682 97.176 145.274 97.144C145.866 97.112 146.458 97.192 147.05 97.384C147.45 97.56 147.834 97.792 148.202 98.08C148.586 98.352 148.938 98.68 149.258 99.064C149.578 99.448 149.858 99.904 150.098 100.432C150.338 100.944 150.538 101.544 150.698 102.232C150.858 103.08 150.93 103.944 150.914 104.824C150.898 105.704 150.81 106.664 150.65 107.704C150.65 107.704 150.634 107.76 150.602 107.872C150.57 107.984 150.506 108.104 150.41 108.232C150.33 108.36 150.194 108.464 150.002 108.544C149.81 108.608 149.554 108.608 149.234 108.544ZM141.098 108.976C140.874 108.96 140.682 108.912 140.522 108.832C140.378 108.736 140.258 108.632 140.162 108.52C140.066 108.392 139.994 108.288 139.946 108.208C139.914 108.128 139.898 108.088 139.898 108.088C139.802 107.224 139.73 106.384 139.682 105.568C139.65 104.752 139.634 103.944 139.634 103.144C139.634 102.328 139.658 101.488 139.706 100.624C139.754 99.76 139.818 98.848 139.898 97.888C139.898 97.888 139.906 97.848 139.922 97.768C139.938 97.672 139.978 97.568 140.042 97.456C140.122 97.344 140.234 97.248 140.378 97.168C140.538 97.072 140.754 97.032 141.026 97.048C141.298 97.048 141.514 97.104 141.674 97.216C141.834 97.328 141.946 97.464 142.01 97.624C142.09 97.768 142.138 97.896 142.154 98.008C142.186 98.12 142.202 98.176 142.202 98.176C142.154 98.976 142.114 99.76 142.082 100.528C142.05 101.296 142.034 102.08 142.034 102.88C142.034 103.68 142.042 104.512 142.058 105.376C142.09 106.224 142.138 107.12 142.202 108.064C142.202 108.064 142.194 108.112 142.178 108.208C142.162 108.304 142.114 108.416 142.034 108.544C141.97 108.656 141.866 108.76 141.722 108.856C141.578 108.952 141.37 108.992 141.098 108.976Z" fill="black"/>
</g>
</g>
<defs>
<filter id="filter0_b_2018_5066" x="24.5" y="62" width="169" height="77" filterUnits="userSpaceOnUse" color-interpolation-filters="sRGB">
<feFlood flood-opacity="0" result="BackgroundImageFix"/>
<feGaussianBlur in="BackgroundImageFix" stdDeviation="10.5"/>
<feComposite in2="SourceAlpha" operator="in" result="effect1_backgroundBlur_2018_5066"/>
<feBlend mode="normal" in="SourceGraphic" in2="effect1_backgroundBlur_2018_5066" result="shape"/>
</filter>
<clipPath id="clip0_2018_5066">
<rect width="218" height="128" fill="white"/>
</clipPath>
</defs>
</svg>
